<?xml version="1.0" encoding="UTF-8"?>
<!DOCTYPE svg PUBLIC "-//W3C//DTD SVG 1.1//EN" "http://www.w3.org/Graphics/SVG/1.1/DTD/svg11.dtd">
<svg xmlns="http://www.w3.org/2000/svg" version="1.1" width="180px" height="180px" style="shape-rendering:geometricPrecision; text-rendering:geometricPrecision; image-rendering:optimizeQuality; fill-rule:evenodd; clip-rule:evenodd" xmlns:xlink="http://www.w3.org/1999/xlink">
<g><path style="opacity:0.946" fill="#1b1c1e" d="M 179.5,60.5 C 179.5,62.5 179.5,64.5 179.5,66.5C 177.5,66.5 175.5,66.5 173.5,66.5C 173.5,68.5 173.5,70.5 173.5,72.5C 171.833,72.5 170.167,72.5 168.5,72.5C 168.5,68.8333 168.5,65.1667 168.5,61.5C 164.5,61.5 160.5,61.5 156.5,61.5C 156.5,59.5 156.5,57.5 156.5,55.5C 154.833,55.5 153.167,55.5 151.5,55.5C 151.5,53.8333 151.5,52.1667 151.5,50.5C 130.833,50.5 110.167,50.5 89.5,50.5C 89.5,46.5 89.5,42.5 89.5,38.5C 87.5,38.5 85.5,38.5 83.5,38.5C 83.5,40.5 83.5,42.5 83.5,44.5C 79.8333,44.5 76.1667,44.5 72.5,44.5C 72.5,40.8333 72.5,37.1667 72.5,33.5C 63.1667,33.5 53.8333,33.5 44.5,33.5C 44.5,31.5 44.5,29.5 44.5,27.5C 40.8333,27.5 37.1667,27.5 33.5,27.5C 33.5,25.5 33.5,23.5 33.5,21.5C 31.5,21.5 29.5,21.5 27.5,21.5C 27.5,19.8333 27.5,18.1667 27.5,16.5C 23.5,16.5 19.5,16.5 15.5,16.5C 14.1667,16.5 12.8333,16.5 11.5,16.5C 11.5,18.1667 11.5,19.8333 11.5,21.5C 10.5386,23.2646 10.2053,25.2646 10.5,27.5C 8.83333,27.5 7.16667,27.5 5.5,27.5C 5.5,36.8333 5.5,46.1667 5.5,55.5C 7.16667,55.5 8.83333,55.5 10.5,55.5C 10.5,53.8333 10.5,52.1667 10.5,50.5C 12.5,50.5 14.5,50.5 16.5,50.5C 16.5,52.5 16.5,54.5 16.5,56.5C 18.1667,56.5 19.8333,56.5 21.5,56.5C 21.5,58.1667 21.5,59.8333 21.5,61.5C 25.5,61.5 29.5,61.5 33.5,61.5C 33.5,65.1667 33.5,68.8333 33.5,72.5C 35.1667,72.5 36.8333,72.5 38.5,72.5C 38.5,76.1667 38.5,79.8333 38.5,83.5C 36.8333,83.5 35.1667,83.5 33.5,83.5C 33.5,87.5 33.5,91.5 33.5,95.5C 31.5,95.5 29.5,95.5 27.5,95.5C 27.5,93.5 27.5,91.5 27.5,89.5C 25.8333,89.5 24.1667,89.5 22.5,89.5C 21.5489,90.9187 21.2155,92.5853 21.5,94.5C 18.1667,94.5 14.8333,94.5 11.5,94.5C 11.7845,92.5853 11.4511,90.9187 10.5,89.5C 8.83333,89.5 7.16667,89.5 5.5,89.5C 4.50797,96.9818 4.17464,104.648 4.5,112.5C 6.83333,112.5 9.16667,112.5 11.5,112.5C 11.5,110.5 11.5,108.5 11.5,106.5C 16.8333,106.5 22.1667,106.5 27.5,106.5C 27.5,108.5 27.5,110.5 27.5,112.5C 31.1667,112.5 34.8333,112.5 38.5,112.5C 38.5,114.167 38.5,115.833 38.5,117.5C 44.1667,117.5 49.8333,117.5 55.5,117.5C 55.5,119.5 55.5,121.5 55.5,123.5C 47.8333,123.5 40.1667,123.5 32.5,123.5C 32.5,121.833 32.5,120.167 32.5,118.5C 28.8333,118.5 25.1667,118.5 21.5,118.5C 21.5,116.5 21.5,114.5 21.5,112.5C 19.8333,112.5 18.1667,112.5 16.5,112.5C 16.5,114.5 16.5,116.5 16.5,118.5C 10.8333,118.5 5.16667,118.5 -0.5,118.5C -0.5,106.833 -0.5,95.1667 -0.5,83.5C 8.83333,83.5 18.1667,83.5 27.5,83.5C 27.5,78.1667 27.5,72.8333 27.5,67.5C 23.5,67.5 19.5,67.5 15.5,67.5C 15.5,65.5 15.5,63.5 15.5,61.5C 14.1667,61.5 12.8333,61.5 11.5,61.5C 9.16667,61.5 6.83333,61.5 4.5,61.5C 2.83333,61.5 1.16667,61.5 -0.5,61.5C -0.5,48.1667 -0.5,34.8333 -0.5,21.5C 1.16667,21.5 2.83333,21.5 4.5,21.5C 4.5,17.8333 4.5,14.1667 4.5,10.5C 14.1667,10.5 23.8333,10.5 33.5,10.5C 33.5,12.1667 33.5,13.8333 33.5,15.5C 35.5,15.5 37.5,15.5 39.5,15.5C 39.5,17.5 39.5,19.5 39.5,21.5C 43.1667,21.5 46.8333,21.5 50.5,21.5C 50.5,23.5 50.5,25.5 50.5,27.5C 59.8333,27.5 69.1667,27.5 78.5,27.5C 78.5,29.1667 78.5,30.8333 78.5,32.5C 84.1667,32.5 89.8333,32.5 95.5,32.5C 95.5,36.5 95.5,40.5 95.5,44.5C 116.167,44.5 136.833,44.5 157.5,44.5C 157.5,46.1667 157.5,47.8333 157.5,49.5C 159.5,49.5 161.5,49.5 163.5,49.5C 163.5,51.5 163.5,53.5 163.5,55.5C 167.167,55.5 170.833,55.5 174.5,55.5C 174.5,57.1667 174.5,58.8333 174.5,60.5C 176.167,60.5 177.833,60.5 179.5,60.5 Z M 15.5,16.5 C 15.5,18.1667 15.5,19.8333 15.5,21.5C 14.1667,21.5 12.8333,21.5 11.5,21.5C 11.5,19.8333 11.5,18.1667 11.5,16.5C 12.8333,16.5 14.1667,16.5 15.5,16.5 Z M 16.5,22.5 C 18.1667,22.5 19.8333,22.5 21.5,22.5C 21.5,24.1667 21.5,25.8333 21.5,27.5C 19.8333,27.5 18.1667,27.5 16.5,27.5C 16.5,25.8333 16.5,24.1667 16.5,22.5 Z"/></g>
<g><path style="opacity:0.996" fill="#fd9b19" d="M 15.5,16.5 C 19.5,16.5 23.5,16.5 27.5,16.5C 27.5,18.1667 27.5,19.8333 27.5,21.5C 29.5,21.5 31.5,21.5 33.5,21.5C 33.5,23.5 33.5,25.5 33.5,27.5C 37.1667,27.5 40.8333,27.5 44.5,27.5C 44.5,29.5 44.5,31.5 44.5,33.5C 53.8333,33.5 63.1667,33.5 72.5,33.5C 72.5,37.1667 72.5,40.8333 72.5,44.5C 76.1667,44.5 79.8333,44.5 83.5,44.5C 83.5,42.5 83.5,40.5 83.5,38.5C 85.5,38.5 87.5,38.5 89.5,38.5C 89.5,42.5 89.5,46.5 89.5,50.5C 89.5,52.1667 89.5,53.8333 89.5,55.5C 90.9187,56.4511 92.5853,56.7845 94.5,56.5C 94.5,61.8333 94.5,67.1667 94.5,72.5C 92.8333,72.5 91.1667,72.5 89.5,72.5C 89.5,76.1667 89.5,79.8333 89.5,83.5C 72.5,83.5 55.5,83.5 38.5,83.5C 38.5,79.8333 38.5,76.1667 38.5,72.5C 36.8333,72.5 35.1667,72.5 33.5,72.5C 33.5,68.8333 33.5,65.1667 33.5,61.5C 29.5,61.5 25.5,61.5 21.5,61.5C 21.5,59.8333 21.5,58.1667 21.5,56.5C 19.8333,56.5 18.1667,56.5 16.5,56.5C 16.5,54.5 16.5,52.5 16.5,50.5C 14.5,50.5 12.5,50.5 10.5,50.5C 10.5,52.1667 10.5,53.8333 10.5,55.5C 8.83333,55.5 7.16667,55.5 5.5,55.5C 5.5,46.1667 5.5,36.8333 5.5,27.5C 7.16667,27.5 8.83333,27.5 10.5,27.5C 10.2053,25.2646 10.5386,23.2646 11.5,21.5C 12.8333,21.5 14.1667,21.5 15.5,21.5C 15.5,19.8333 15.5,18.1667 15.5,16.5 Z M 16.5,22.5 C 16.5,24.1667 16.5,25.8333 16.5,27.5C 18.1667,27.5 19.8333,27.5 21.5,27.5C 21.5,25.8333 21.5,24.1667 21.5,22.5C 19.8333,22.5 18.1667,22.5 16.5,22.5 Z"/></g>
<g><path style="opacity:1" fill="#ffd8a5" d="M 55.5,38.5 C 59.5,38.5 63.5,38.5 67.5,38.5C 67.5,42.5 67.5,46.5 67.5,50.5C 63.5,50.5 59.5,50.5 55.5,50.5C 55.5,46.5 55.5,42.5 55.5,38.5 Z"/></g>
<g><path style="opacity:1" fill="#fefffe" d="M 56.5,39.5 C 59.8333,39.5 63.1667,39.5 66.5,39.5C 66.5,42.8333 66.5,46.1667 66.5,49.5C 63.1667,49.5 59.8333,49.5 56.5,49.5C 56.5,46.1667 56.5,42.8333 56.5,39.5 Z"/></g>
<g><path style="opacity:1" fill="#8434b8" d="M 89.5,50.5 C 110.167,50.5 130.833,50.5 151.5,50.5C 151.5,52.1667 151.5,53.8333 151.5,55.5C 153.167,55.5 154.833,55.5 156.5,55.5C 156.5,57.5 156.5,59.5 156.5,61.5C 160.5,61.5 164.5,61.5 168.5,61.5C 168.5,65.1667 168.5,68.8333 168.5,72.5C 170.167,72.5 171.833,72.5 173.5,72.5C 173.5,70.5 173.5,68.5 173.5,66.5C 175.5,66.5 177.5,66.5 179.5,66.5C 179.5,72.1667 179.5,77.8333 179.5,83.5C 177.5,83.5 175.5,83.5 173.5,83.5C 173.5,85.5 173.5,87.5 173.5,89.5C 145.5,89.5 117.5,89.5 89.5,89.5C 89.5,91.1667 89.5,92.8333 89.5,94.5C 87.5,94.5 85.5,94.5 83.5,94.5C 83.5,96.5 83.5,98.5 83.5,100.5C 81.8333,100.5 80.1667,100.5 78.5,100.5C 77.5184,103.962 77.185,107.629 77.5,111.5C 75.5853,111.216 73.9187,111.549 72.5,112.5C 72.5,114.167 72.5,115.833 72.5,117.5C 66.8333,117.5 61.1667,117.5 55.5,117.5C 49.8333,117.5 44.1667,117.5 38.5,117.5C 38.5,115.833 38.5,114.167 38.5,112.5C 34.8333,112.5 31.1667,112.5 27.5,112.5C 27.5,110.5 27.5,108.5 27.5,106.5C 22.1667,106.5 16.8333,106.5 11.5,106.5C 10.5489,107.919 10.2155,109.585 10.5,111.5C 8.83333,111.5 7.16667,111.5 5.5,111.5C 5.5,104.167 5.5,96.8333 5.5,89.5C 7.16667,89.5 8.83333,89.5 10.5,89.5C 10.5,91.5 10.5,93.5 10.5,95.5C 14.5,95.5 18.5,95.5 22.5,95.5C 22.5,93.5 22.5,91.5 22.5,89.5C 24.1667,89.5 25.8333,89.5 27.5,89.5C 27.5,91.5 27.5,93.5 27.5,95.5C 29.5,95.5 31.5,95.5 33.5,95.5C 33.5,91.5 33.5,87.5 33.5,83.5C 35.1667,83.5 36.8333,83.5 38.5,83.5C 55.5,83.5 72.5,83.5 89.5,83.5C 89.5,79.8333 89.5,76.1667 89.5,72.5C 91.1667,72.5 92.8333,72.5 94.5,72.5C 95.4889,67.0247 95.8222,61.358 95.5,55.5C 93.5,55.5 91.5,55.5 89.5,55.5C 89.5,53.8333 89.5,52.1667 89.5,50.5 Z"/></g>
<g><path style="opacity:1" fill="#d37652" d="M 89.5,55.5 C 91.5,55.5 93.5,55.5 95.5,55.5C 95.8222,61.358 95.4889,67.0247 94.5,72.5C 94.5,67.1667 94.5,61.8333 94.5,56.5C 92.5853,56.7845 90.9187,56.4511 89.5,55.5 Z"/></g>
<g><path style="opacity:0.737" fill="#fefffe" d="M 4.5,61.5 C 6.83333,61.5 9.16667,61.5 11.5,61.5C 11.5,63.5 11.5,65.5 11.5,67.5C 9.16667,67.5 6.83333,67.5 4.5,67.5C 4.5,65.5 4.5,63.5 4.5,61.5 Z"/></g>
<g><path style="opacity:0.907" fill="#191b1d" d="M 179.5,83.5 C 179.5,89.5 179.5,95.5 179.5,101.5C 177.833,101.5 176.167,101.5 174.5,101.5C 174.5,112.5 174.5,123.5 174.5,134.5C 172.5,134.5 170.5,134.5 168.5,134.5C 168.5,140.167 168.5,145.833 168.5,151.5C 166.833,151.5 165.167,151.5 163.5,151.5C 163.5,155.5 163.5,159.5 163.5,163.5C 149.833,163.5 136.167,163.5 122.5,163.5C 122.5,157.5 122.5,151.5 122.5,145.5C 124.5,145.5 126.5,145.5 128.5,145.5C 128.5,143.833 128.5,142.167 128.5,140.5C 117.5,140.5 106.5,140.5 95.5,140.5C 95.5,142.5 95.5,144.5 95.5,146.5C 93.5,146.5 91.5,146.5 89.5,146.5C 89.5,150.167 89.5,153.833 89.5,157.5C 87.8333,157.5 86.1667,157.5 84.5,157.5C 84.5,159.5 84.5,161.5 84.5,163.5C 72.8333,163.5 61.1667,163.5 49.5,163.5C 49.5,155.5 49.5,147.5 49.5,139.5C 51.5,139.5 53.5,139.5 55.5,139.5C 55.5,134.167 55.5,128.833 55.5,123.5C 57.5,123.5 59.5,123.5 61.5,123.5C 61.5,125.167 61.5,126.833 61.5,128.5C 62.9187,129.451 64.5853,129.784 66.5,129.5C 66.5,132.833 66.5,136.167 66.5,139.5C 64.5853,139.216 62.9187,139.549 61.5,140.5C 61.5,142.167 61.5,143.833 61.5,145.5C 59.5,145.5 57.5,145.5 55.5,145.5C 55.5,149.5 55.5,153.5 55.5,157.5C 63.1667,157.5 70.8333,157.5 78.5,157.5C 78.5,155.5 78.5,153.5 78.5,151.5C 80.1667,151.5 81.8333,151.5 83.5,151.5C 84.4816,148.038 84.815,144.371 84.5,140.5C 86.4147,140.784 88.0813,140.451 89.5,139.5C 89.5,137.833 89.5,136.167 89.5,134.5C 106.5,134.5 123.5,134.5 140.5,134.5C 140.5,136.5 140.5,138.5 140.5,140.5C 138.5,140.5 136.5,140.5 134.5,140.5C 134.5,144.167 134.5,147.833 134.5,151.5C 132.833,151.5 131.167,151.5 129.5,151.5C 128.539,153.265 128.205,155.265 128.5,157.5C 138.167,157.5 147.833,157.5 157.5,157.5C 157.5,153.833 157.5,150.167 157.5,146.5C 159.415,146.784 161.081,146.451 162.5,145.5C 162.5,139.833 162.5,134.167 162.5,128.5C 164.5,128.5 166.5,128.5 168.5,128.5C 168.5,117.5 168.5,106.5 168.5,95.5C 170.5,95.5 172.5,95.5 174.5,95.5C 174.795,93.2646 174.461,91.2646 173.5,89.5C 173.5,87.5 173.5,85.5 173.5,83.5C 175.5,83.5 177.5,83.5 179.5,83.5 Z"/></g>
<g><path style="opacity:1" fill="#402458" d="M 5.5,89.5 C 5.5,96.8333 5.5,104.167 5.5,111.5C 7.16667,111.5 8.83333,111.5 10.5,111.5C 10.2155,109.585 10.5489,107.919 11.5,106.5C 11.5,108.5 11.5,110.5 11.5,112.5C 9.16667,112.5 6.83333,112.5 4.5,112.5C 4.17464,104.648 4.50797,96.9818 5.5,89.5 Z"/></g>
<g><path style="opacity:1" fill="#fd9b19" d="M 173.5,89.5 C 174.461,91.2646 174.795,93.2646 174.5,95.5C 172.5,95.5 170.5,95.5 168.5,95.5C 168.5,106.5 168.5,117.5 168.5,128.5C 166.5,128.5 164.5,128.5 162.5,128.5C 162.5,134.167 162.5,139.833 162.5,145.5C 160.5,145.5 158.5,145.5 156.5,145.5C 156.5,149.167 156.5,152.833 156.5,156.5C 147.5,156.5 138.5,156.5 129.5,156.5C 129.5,154.833 129.5,153.167 129.5,151.5C 131.167,151.5 132.833,151.5 134.5,151.5C 134.5,147.833 134.5,144.167 134.5,140.5C 136.5,140.5 138.5,140.5 140.5,140.5C 140.5,138.5 140.5,136.5 140.5,134.5C 123.5,134.5 106.5,134.5 89.5,134.5C 89.5,136.167 89.5,137.833 89.5,139.5C 87.5,139.5 85.5,139.5 83.5,139.5C 83.5,143.5 83.5,147.5 83.5,151.5C 81.8333,151.5 80.1667,151.5 78.5,151.5C 78.5,153.5 78.5,155.5 78.5,157.5C 70.8333,157.5 63.1667,157.5 55.5,157.5C 55.5,153.5 55.5,149.5 55.5,145.5C 57.5,145.5 59.5,145.5 61.5,145.5C 61.5,143.833 61.5,142.167 61.5,140.5C 63.5,140.5 65.5,140.5 67.5,140.5C 67.5,136.5 67.5,132.5 67.5,128.5C 65.5,128.5 63.5,128.5 61.5,128.5C 61.5,126.833 61.5,125.167 61.5,123.5C 59.5,123.5 57.5,123.5 55.5,123.5C 55.5,121.5 55.5,119.5 55.5,117.5C 61.1667,117.5 66.8333,117.5 72.5,117.5C 72.5,115.833 72.5,114.167 72.5,112.5C 74.5,112.5 76.5,112.5 78.5,112.5C 78.5,108.5 78.5,104.5 78.5,100.5C 80.1667,100.5 81.8333,100.5 83.5,100.5C 84.4511,99.0813 84.7845,97.4147 84.5,95.5C 86.4147,95.7845 88.0813,95.4511 89.5,94.5C 89.5,92.8333 89.5,91.1667 89.5,89.5C 117.5,89.5 145.5,89.5 173.5,89.5 Z"/></g>
<g><path style="opacity:1" fill="#42245a" d="M 10.5,89.5 C 11.4511,90.9187 11.7845,92.5853 11.5,94.5C 14.8333,94.5 18.1667,94.5 21.5,94.5C 21.2155,92.5853 21.5489,90.9187 22.5,89.5C 22.5,91.5 22.5,93.5 22.5,95.5C 18.5,95.5 14.5,95.5 10.5,95.5C 10.5,93.5 10.5,91.5 10.5,89.5 Z"/></g>
<g><path style="opacity:1" fill="#c66a65" d="M 89.5,94.5 C 88.0813,95.4511 86.4147,95.7845 84.5,95.5C 84.7845,97.4147 84.4511,99.0813 83.5,100.5C 83.5,98.5 83.5,96.5 83.5,94.5C 85.5,94.5 87.5,94.5 89.5,94.5 Z"/></g>
<g><path style="opacity:1" fill="#ac5487" d="M 78.5,100.5 C 78.5,104.5 78.5,108.5 78.5,112.5C 76.5,112.5 74.5,112.5 72.5,112.5C 73.9187,111.549 75.5853,111.216 77.5,111.5C 77.185,107.629 77.5184,103.962 78.5,100.5 Z"/></g>
<g><path style="opacity:1" fill="#84571b" d="M 61.5,128.5 C 63.5,128.5 65.5,128.5 67.5,128.5C 67.5,132.5 67.5,136.5 67.5,140.5C 65.5,140.5 63.5,140.5 61.5,140.5C 62.9187,139.549 64.5853,139.216 66.5,139.5C 66.5,136.167 66.5,132.833 66.5,129.5C 64.5853,129.784 62.9187,129.451 61.5,128.5 Z"/></g>
<g><path style="opacity:1" fill="#7d531c" d="M 89.5,139.5 C 88.0813,140.451 86.4147,140.784 84.5,140.5C 84.815,144.371 84.4816,148.038 83.5,151.5C 83.5,147.5 83.5,143.5 83.5,139.5C 85.5,139.5 87.5,139.5 89.5,139.5 Z"/></g>
<g><path style="opacity:1" fill="#895a1b" d="M 162.5,145.5 C 161.081,146.451 159.415,146.784 157.5,146.5C 157.5,150.167 157.5,153.833 157.5,157.5C 147.833,157.5 138.167,157.5 128.5,157.5C 128.205,155.265 128.539,153.265 129.5,151.5C 129.5,153.167 129.5,154.833 129.5,156.5C 138.5,156.5 147.5,156.5 156.5,156.5C 156.5,152.833 156.5,149.167 156.5,145.5C 158.5,145.5 160.5,145.5 162.5,145.5 Z"/></g>
</svg>
